<mxfile host="www.draw.io" modified="2020-03-09T09:33:51.482Z" agent="Mozilla/5.0 (Macintosh; Intel Mac OS X 10_14_6) AppleWebKit/537.36 (KHTML, like Gecko) Chrome/80.0.3987.132 Safari/537.36" etag="Il4wSBH2ObfmySHZ08cC" version="12.8.1" type="github">
  <diagram id="geGyV9CUGruVcSVJQ4Tn" name="Page-1">
    <mxGraphModel dx="1305" dy="691" grid="1" gridSize="10" guides="1" tooltips="1" connect="1" arrows="1" fold="1" page="1" pageScale="1" pageWidth="827" pageHeight="1169" math="0" shadow="0">
      <root>
        <mxCell id="0" />
        <mxCell id="1" parent="0" />
        <mxCell id="G7hsPfZz7vV4UwQeY0kT-4" value="" style="shape=ext;rounded=1;html=1;whiteSpace=wrap;dashed=1;dashPattern=1 4;fillColor=none;" vertex="1" parent="1">
          <mxGeometry x="310" y="276.25" width="150" height="368.5" as="geometry" />
        </mxCell>
        <mxCell id="LcKjTb1axMx3lXvR7wpQ-1" value="变更业务平台" style="rounded=0;whiteSpace=wrap;html=1;fillColor=#E6E6E6;" parent="1" vertex="1">
          <mxGeometry x="325" y="309.25" width="120" height="60" as="geometry" />
        </mxCell>
        <mxCell id="LcKjTb1axMx3lXvR7wpQ-2" value="基础设施" style="rounded=0;whiteSpace=wrap;html=1;fillColor=#E6E6E6;" parent="1" vertex="1">
          <mxGeometry x="325" y="428.25" width="120" height="60" as="geometry" />
        </mxCell>
        <mxCell id="LcKjTb1axMx3lXvR7wpQ-3" value="监控实时数据" style="rounded=0;whiteSpace=wrap;html=1;fillColor=#E6E6E6;" parent="1" vertex="1">
          <mxGeometry x="325" y="549.25" width="120" height="60" as="geometry" />
        </mxCell>
        <mxCell id="uUqzo-tKIlISHVn7fkZO-5" value="" style="shape=mxgraph.bpmn.user_task;html=1;outlineConnect=0;fillColor=none;" parent="1" vertex="1">
          <mxGeometry x="940" y="260" width="60" height="59" as="geometry" />
        </mxCell>
        <mxCell id="uUqzo-tKIlISHVn7fkZO-7" value="" style="shape=mxgraph.bpmn.manual_task;html=1;outlineConnect=0;fillColor=none;" parent="1" vertex="1">
          <mxGeometry x="940" y="368.25" width="59" height="50" as="geometry" />
        </mxCell>
        <mxCell id="uUqzo-tKIlISHVn7fkZO-8" value="" style="shape=parallelMarker;direction=south;html=1;outlineConnect=0;fillColor=none;" parent="1" vertex="1">
          <mxGeometry x="940" y="470" width="59" height="54" as="geometry" />
        </mxCell>
        <mxCell id="uUqzo-tKIlISHVn7fkZO-9" value="" style="shape=mxgraph.bpmn.script_task;html=1;outlineConnect=0;fillColor=none;" parent="1" vertex="1">
          <mxGeometry x="940" y="580" width="59" height="60" as="geometry" />
        </mxCell>
        <mxCell id="uUqzo-tKIlISHVn7fkZO-10" value="九州" style="text;html=1;align=center;verticalAlign=middle;resizable=0;points=[];autosize=1;fillColor=none;" parent="1" vertex="1">
          <mxGeometry x="1008" y="279.5" width="40" height="20" as="geometry" />
        </mxCell>
        <mxCell id="uUqzo-tKIlISHVn7fkZO-11" value="变更核心" style="text;html=1;align=center;verticalAlign=middle;resizable=0;points=[];autosize=1;fillColor=none;" parent="1" vertex="1">
          <mxGeometry x="1009" y="383.25" width="60" height="20" as="geometry" />
        </mxCell>
        <mxCell id="uUqzo-tKIlISHVn7fkZO-12" value="灰度分批" style="text;html=1;align=center;verticalAlign=middle;resizable=0;points=[];autosize=1;fillColor=none;" parent="1" vertex="1">
          <mxGeometry x="1009" y="487" width="60" height="20" as="geometry" />
        </mxCell>
        <mxCell id="uUqzo-tKIlISHVn7fkZO-13" value="监控" style="text;html=1;align=center;verticalAlign=middle;resizable=0;points=[];autosize=1;fillColor=none;" parent="1" vertex="1">
          <mxGeometry x="1008" y="595" width="40" height="20" as="geometry" />
        </mxCell>
        <mxCell id="9gSYmwtCO_HpfqXC6Y7g-23" value="RMC" style="swimlane;html=1;startSize=20;horizontal=1;childLayout=treeLayout;horizontalTree=0;resizable=0;containerType=tree;fillColor=#F0F0F0;" parent="1" vertex="1">
          <mxGeometry x="500" y="229" width="430" height="463" as="geometry" />
        </mxCell>
        <mxCell id="9gSYmwtCO_HpfqXC6Y7g-24" value="数据拉取" style="whiteSpace=wrap;html=1;fillColor=#E6E6E6;" parent="9gSYmwtCO_HpfqXC6Y7g-23" vertex="1">
          <mxGeometry x="118" y="40" width="100" height="40" as="geometry" />
        </mxCell>
        <mxCell id="9gSYmwtCO_HpfqXC6Y7g-25" value="全量同步" style="whiteSpace=wrap;html=1;fillColor=#E6E6E6;" parent="9gSYmwtCO_HpfqXC6Y7g-23" vertex="1">
          <mxGeometry x="188" y="130" width="100" height="40" as="geometry" />
        </mxCell>
        <mxCell id="9gSYmwtCO_HpfqXC6Y7g-26" value="" style="edgeStyle=elbowEdgeStyle;elbow=vertical;html=1;rounded=0;fillColor=none;" parent="9gSYmwtCO_HpfqXC6Y7g-23" source="9gSYmwtCO_HpfqXC6Y7g-24" target="9gSYmwtCO_HpfqXC6Y7g-25" edge="1">
          <mxGeometry relative="1" as="geometry" />
        </mxCell>
        <mxCell id="9gSYmwtCO_HpfqXC6Y7g-27" value="实时同步" style="whiteSpace=wrap;html=1;fillColor=#E6E6E6;" parent="9gSYmwtCO_HpfqXC6Y7g-23" vertex="1">
          <mxGeometry x="48" y="130" width="100" height="40" as="geometry" />
        </mxCell>
        <mxCell id="9gSYmwtCO_HpfqXC6Y7g-28" value="" style="edgeStyle=elbowEdgeStyle;elbow=vertical;html=1;rounded=0;fillColor=none;" parent="9gSYmwtCO_HpfqXC6Y7g-23" source="9gSYmwtCO_HpfqXC6Y7g-24" target="9gSYmwtCO_HpfqXC6Y7g-27" edge="1">
          <mxGeometry relative="1" as="geometry" />
        </mxCell>
        <mxCell id="9gSYmwtCO_HpfqXC6Y7g-35" value="数据存取" style="swimlane;childLayout=stackLayout;horizontal=1;fillColor=none;horizontalStack=1;resizeParent=1;resizeParentMax=0;resizeLast=0;collapsible=0;strokeColor=none;stackBorder=10;stackSpacing=-12;resizable=1;align=center;points=[];fontColor=#000000;" parent="9gSYmwtCO_HpfqXC6Y7g-23" vertex="1">
          <mxGeometry x="20" y="194.5" width="296" height="100" as="geometry" />
        </mxCell>
        <mxCell id="9gSYmwtCO_HpfqXC6Y7g-36" value="数据源" style="shape=step;perimeter=stepPerimeter;fixedSize=1;points=[];fillColor=#B3B3B3;" parent="9gSYmwtCO_HpfqXC6Y7g-35" vertex="1">
          <mxGeometry x="10" y="33" width="100" height="57" as="geometry" />
        </mxCell>
        <mxCell id="9gSYmwtCO_HpfqXC6Y7g-37" value="数据组装" style="shape=step;perimeter=stepPerimeter;fixedSize=1;points=[];fillColor=#B3B3B3;" parent="9gSYmwtCO_HpfqXC6Y7g-35" vertex="1">
          <mxGeometry x="98" y="33" width="100" height="57" as="geometry" />
        </mxCell>
        <mxCell id="9gSYmwtCO_HpfqXC6Y7g-38" value="数据服务" style="shape=step;perimeter=stepPerimeter;fixedSize=1;points=[];fillColor=#B3B3B3;" parent="9gSYmwtCO_HpfqXC6Y7g-35" vertex="1">
          <mxGeometry x="186" y="33" width="100" height="57" as="geometry" />
        </mxCell>
        <mxCell id="9gSYmwtCO_HpfqXC6Y7g-15" value="存储(lindorm)" style="swimlane;fontStyle=0;childLayout=stackLayout;horizontal=1;startSize=26;fillColor=#E6E6E6;horizontalStack=0;resizeParent=1;resizeParentMax=0;resizeLast=0;collapsible=1;marginBottom=0;swimlaneFillColor=#ffffff;align=center;fontSize=14;" parent="9gSYmwtCO_HpfqXC6Y7g-23" vertex="1">
          <mxGeometry x="88" y="331" width="160" height="112" as="geometry" />
        </mxCell>
        <mxCell id="9gSYmwtCO_HpfqXC6Y7g-16" value="hash" style="shape=partialRectangle;top=0;left=0;right=0;bottom=0;align=left;verticalAlign=middle;fillColor=#E6E6E6;spacingLeft=60;spacingRight=4;overflow=hidden;rotatable=0;points=[[0,0.5],[1,0.5]];portConstraint=eastwest;dropTarget=0;fontStyle=5;fontSize=12;" parent="9gSYmwtCO_HpfqXC6Y7g-15" vertex="1">
          <mxGeometry y="26" width="160" height="30" as="geometry" />
        </mxCell>
        <mxCell id="9gSYmwtCO_HpfqXC6Y7g-17" value="PK,FK1" style="shape=partialRectangle;fontStyle=1;top=0;left=0;bottom=0;fillColor=#E6E6E6;align=left;verticalAlign=middle;spacingLeft=4;spacingRight=4;overflow=hidden;rotatable=0;points=[];portConstraint=eastwest;part=1;fontSize=12;" parent="9gSYmwtCO_HpfqXC6Y7g-16" vertex="1" connectable="0">
          <mxGeometry width="56" height="30" as="geometry" />
        </mxCell>
        <mxCell id="9gSYmwtCO_HpfqXC6Y7g-18" value="arn" style="shape=partialRectangle;top=0;left=0;right=0;bottom=1;align=left;verticalAlign=middle;fillColor=#E6E6E6;spacingLeft=60;spacingRight=4;overflow=hidden;rotatable=0;points=[[0,0.5],[1,0.5]];portConstraint=eastwest;dropTarget=0;fontStyle=5;fontSize=12;" parent="9gSYmwtCO_HpfqXC6Y7g-15" vertex="1">
          <mxGeometry y="56" width="160" height="30" as="geometry" />
        </mxCell>
        <mxCell id="9gSYmwtCO_HpfqXC6Y7g-19" value="PK,FK2" style="shape=partialRectangle;fontStyle=1;top=0;left=0;bottom=0;fillColor=#E6E6E6;align=left;verticalAlign=middle;spacingLeft=4;spacingRight=4;overflow=hidden;rotatable=0;points=[];portConstraint=eastwest;part=1;fontSize=12;" parent="9gSYmwtCO_HpfqXC6Y7g-18" vertex="1" connectable="0">
          <mxGeometry width="56" height="30" as="geometry" />
        </mxCell>
        <mxCell id="9gSYmwtCO_HpfqXC6Y7g-20" value="attribute" style="shape=partialRectangle;top=0;left=0;right=0;bottom=0;align=left;verticalAlign=top;fillColor=#E6E6E6;spacingLeft=60;spacingRight=4;overflow=hidden;rotatable=0;points=[[0,0.5],[1,0.5]];portConstraint=eastwest;dropTarget=0;fontSize=12;" parent="9gSYmwtCO_HpfqXC6Y7g-15" vertex="1">
          <mxGeometry y="86" width="160" height="26" as="geometry" />
        </mxCell>
        <mxCell id="9gSYmwtCO_HpfqXC6Y7g-21" value="" style="shape=partialRectangle;top=0;left=0;bottom=0;fillColor=#E6E6E6;align=left;verticalAlign=top;spacingLeft=4;spacingRight=4;overflow=hidden;rotatable=0;points=[];portConstraint=eastwest;part=1;fontSize=12;" parent="9gSYmwtCO_HpfqXC6Y7g-20" vertex="1" connectable="0">
          <mxGeometry width="56" height="26" as="geometry" />
        </mxCell>
        <mxCell id="9gSYmwtCO_HpfqXC6Y7g-22" value="业务模块&#xa;（影响面）" style="shape=module;align=left;spacingLeft=20;align=center;verticalAlign=top;fillColor=#CCCCCC;" parent="9gSYmwtCO_HpfqXC6Y7g-23" vertex="1">
          <mxGeometry x="310" y="261" width="100" height="50" as="geometry" />
        </mxCell>
        <mxCell id="G7hsPfZz7vV4UwQeY0kT-7" value="数据拓扑" style="shape=module;align=left;spacingLeft=20;align=center;verticalAlign=top;fillColor=#CCCCCC;" vertex="1" parent="9gSYmwtCO_HpfqXC6Y7g-23">
          <mxGeometry x="308" y="201" width="100" height="50" as="geometry" />
        </mxCell>
        <mxCell id="G7hsPfZz7vV4UwQeY0kT-8" value="权威模型" style="shape=module;align=left;spacingLeft=20;align=center;verticalAlign=top;fillColor=#CCCCCC;" vertex="1" parent="9gSYmwtCO_HpfqXC6Y7g-23">
          <mxGeometry x="310" y="318" width="100" height="50" as="geometry" />
        </mxCell>
        <mxCell id="G7hsPfZz7vV4UwQeY0kT-9" value="元数据查询" style="shape=module;align=left;spacingLeft=20;align=center;verticalAlign=top;fillColor=#CCCCCC;" vertex="1" parent="9gSYmwtCO_HpfqXC6Y7g-23">
          <mxGeometry x="308" y="141" width="100" height="50" as="geometry" />
        </mxCell>
        <mxCell id="G7hsPfZz7vV4UwQeY0kT-5" style="edgeStyle=orthogonalEdgeStyle;curved=1;rounded=0;orthogonalLoop=1;jettySize=auto;html=1;exitX=1;exitY=0.5;exitDx=0;exitDy=0;entryX=0;entryY=0.5;entryDx=0;entryDy=0;fillColor=#E6E6E6;" edge="1" parent="1" source="G7hsPfZz7vV4UwQeY0kT-4" target="9gSYmwtCO_HpfqXC6Y7g-23">
          <mxGeometry relative="1" as="geometry" />
        </mxCell>
      </root>
    </mxGraphModel>
  </diagram>
</mxfile>
